<?xml version="1.0" encoding="UTF-8" standalone="yes"?><svg xmlns:dc="http://purl.org/dc/elements/1.1/" xmlns:cc="http://creativecommons.org/ns#" xmlns:rdf="http://www.w3.org/1999/02/22-rdf-syntax-ns#" xmlns:svg="http://www.w3.org/2000/svg" xmlns="http://www.w3.org/2000/svg" viewBox="0 0 1365.3333 1024" height="1024" width="1365.3333" xml:space="preserve" id="svg2" version="1.1" style="zoom: 0.5;"><metadata id="metadata8"><rdf:RDF><cc:Work rdf:about=""><dc:format>image/svg+xml</dc:format><dc:type rdf:resource="http://purl.org/dc/dcmitype/StillImage"></dc:type></cc:Work></rdf:RDF></metadata><defs id="defs6"><clipPath id="clipPath26" clipPathUnits="userSpaceOnUse"><path id="path24" d="m 158.6445,162.6855 h 791.886 v 399.6434 h -791.886 z"></path></clipPath><clipPath id="clipPath40" clipPathUnits="userSpaceOnUse"><path id="path38" d="M 158.6445,562.3289 H 395.4702 V 325.5032 H 158.6445 Z"></path></clipPath><clipPath id="clipPath46" clipPathUnits="userSpaceOnUse"><path id="path44" d="M 90.08493,675.4172 H 1048.157 V 224.2527 H 90.08493 Z"></path></clipPath><clipPath id="clipPath52" clipPathUnits="userSpaceOnUse"><path id="path50" d="M 158.6445,325.5032 H 395.4702 V 562.3289 H 158.6445 Z"></path></clipPath></defs><g transform="matrix(1.3333333,0,0,-1.3333333,0,1024)" id="g10"><g id="g12"></g><g id="g14"><path d="M-1849.978027,-1503.24585 H-825.978516 V-2271.24585 H-1849.978027  Z " id="path16" style="fill:#000000;fill-opacity:1;fill-rule:nonzero;stroke:none"></path></g><g id="g20"><g clip-path="url(#clipPath26)" id="g22"><g transform="matrix(7.400804,0,0,7.400803,409.2742,-29.73534)" id="g28"><text id="text32" style="font-variant:normal;font-weight:normal;font-size:15px;font-family:FreightSansLFPro;-inkscape-font-specification:FreightSansLFPro-Regular;writing-mode:lr-tb;fill:#6f5ba1;fill-opacity:1;fill-rule:nonzero;stroke:none" transform="matrix(1,0,0,-1,0,54)"><tspan y="0" id="tspan30" x="0 15.375 27.975 44.369999">GLOW</tspan></text></g></g></g><g id="g34"><g clip-path="url(#clipPath40)" id="g36"><g clip-path="url(#clipPath46)" id="g42"><g clip-path="url(#clipPath52)" id="g48"><path id="path54" style="fill:#333333;fill-opacity:1;fill-rule:nonzero;stroke:none" d="m 542.4571,357.8638 c -48.1043,0 -80.2628,33.1097 -80.2628,85.1389 0,52.2923 33.7527,85.9274 80.2628,85.9274 20.4647,0 40.3971,-6.3067 52.623,-13.6644 l -5.5816,-15.2408 c -12.4912,7.8832 -30.0319,13.6642 -47.3068,13.6642 -36.1451,0 -62.7226,-25.4891 -62.7226,-70.1607 0,-43.3577 25.2486,-70.4233 63.2541,-70.4233 15.6804,0 29.2345,4.2042 39.8657,9.9854 v 44.6713 h -48.1051 v 15.2409 h 64.5831 v -68.8466 c -16.2127,-10.7736 -37.7401,-16.2923 -56.6098,-16.2923"></path><path id="path56" style="fill:#333333;fill-opacity:1;fill-rule:nonzero;stroke:none" d="m 627.8498,361.2801 v 177.1097 l 16.4779,3.4161 V 361.2801 Z"></path><path id="path58" style="fill:#333333;fill-opacity:1;fill-rule:nonzero;stroke:none" d="m 725.1732,470.3315 c -25.7794,0 -42.7889,-20.2338 -42.7889,-48.6135 0,-29.4305 17.2749,-49.1384 43.0551,-49.1384 25.7799,0 42.7894,20.2332 42.7894,48.613 0,29.4307 -17.2755,49.1389 -43.0556,49.1389 m -0.5314,-112.4677 c -33.7529,0 -58.7355,24.701 -58.7355,63.3288 0,38.365 26.0455,63.8539 60.0644,63.8539 34.0187,0 58.4699,-24.7005 58.4699,-63.3285 0,-38.3648 -26.0453,-63.8542 -59.7988,-63.8542"></path><path id="path60" style="fill:#333333;fill-opacity:1;fill-rule:nonzero;stroke:none" d="m 826.6422,360.7548 -37.2081,120.876 h 17.541 l 28.1717,-95.9128 31.6272,95.65 h 14.8829 l 33.221,-96.1755 25.2493,96.4383 h 18.072 l -36.1455,-120.876 h -14.6166 l -33.222,97.2261 -33.2213,-97.2261 z"></path><path d="M320.53009,487.365753 l25.6887,-43.9925 l-35.0915,-60.0947 h-70.1829 l-35.0917,60.0947 l35.0917,60.0948 h35.0914 v22.0997 h-47.9963 l-47.9962,-82.1945 l47.9962,-82.1943 h95.9926 l47.9962,82.1943 l-35.1357,60.1705  z " id="path62" style="fill:#6f59a4;fill-opacity:1;fill-rule:nonzero;stroke:none"></path></g></g></g></g></g></svg>
